<svg xmlns="http://www.w3.org/2000/svg" xmlns:xlink="http://www.w3.org/1999/xlink" viewBox="0 0 591.32 399.9"><defs><style>.cls-1{fill:none;}.cls-2{isolation:isolate;}.cls-3{fill:url(#radial-gradient);}.cls-4{clip-path:url(#clip-path);}.cls-5{font-size:24.94px;fill:#5c7e7e;font-family:Gotham-Book, Gotham Book;}.cls-14,.cls-20,.cls-6{fill:#fff;}.cls-26,.cls-6{opacity:0.4;}.cls-14,.cls-16,.cls-6{mix-blend-mode:overlay;}.cls-7{fill:#b7a290;}.cls-8{fill:#957c6b;}.cls-9{fill:#38302d;}.cls-10{fill:#201c1c;}.cls-11{fill:#e0c1ad;}.cls-12{fill:#c08c72;}.cls-13{fill:#b7795f;}.cls-15{fill:#f1e3d9;}.cls-16{fill:#c7e0df;opacity:0.6;}.cls-17{fill:#292626;}.cls-18{fill:#2b2929;}.cls-19{fill:#1a1919;}.cls-21{fill:#95624e;}.cls-22{fill:#a64d2e;}.cls-23{fill:#7f3520;}.cls-24{fill:#cca795;}.cls-25{fill:#3f3f44;}.cls-26{fill:#314eaa;mix-blend-mode:multiply;}.cls-27{fill:#777a82;}.cls-28{fill:#37383b;}.cls-29{fill:#2c2d2f;}.cls-30{fill:#3d3e41;}.cls-31{fill:#252628;}.cls-32{fill:#333438;}</style><radialGradient id="radial-gradient" cx="219.49" cy="175.87" r="198.88" gradientUnits="userSpaceOnUse"><stop offset="0" stop-color="#223061"/><stop offset="0.98" stop-color="#223061"/></radialGradient><clipPath id="clip-path" transform="translate(42.08 1.11)"><path class="cls-1" d="M0,219.49C0,98.27,98.27,0,219.49,0S439,98.27,439,219.49a218.47,218.47,0,0,1-44.32,132.25H44.32A218.53,218.53,0,0,1,0,219.49Z"/></clipPath></defs><title>資產 2</title><g class="cls-2"><g id="圖層_2" data-name="圖層 2"><g id="圖層_1-2" data-name="圖層 1"><path class="cls-3" d="M0,219.49C0,98.27,98.27,0,219.49,0S439,98.27,439,219.49a218.47,218.47,0,0,1-44.32,132.25H44.32A218.53,218.53,0,0,1,0,219.49Z" transform="translate(42.08 1.11)"/><g class="cls-4"><text class="cls-5" transform="translate(0 20.88)">0010110010101000110001010001100101010100100100<tspan x="0" y="29.93">1010010010010010100100100101001010010100100110</tspan><tspan x="0" y="59.86">0111001010101001100010100101010010101000101001</tspan><tspan x="0" y="89.79">010010110010101001</tspan><tspan x="0" y="119.72">0010110010101000110001010001100101010100100100</tspan><tspan x="0" y="149.65">1010010010010010100100100101001010010100100110</tspan><tspan x="0" y="179.58">0111001010101001100010100101010010101000101001</tspan><tspan x="0" y="209.51">010010110010101001</tspan><tspan x="0" y="239.44">0010110010101000110001010001100101010100100100</tspan><tspan x="0" y="269.37">1010010010010010100100100101001010010100100110</tspan><tspan x="0" y="299.29">0111001010101001100010100101010010101000101001</tspan><tspan x="0" y="329.22">010010110010101001</tspan></text></g><path class="cls-6" d="M221,0,43.91,186.23,230.19,301.42l207.4-106.6C425.38,85.71,333.19.78,221,0Z" transform="translate(42.08 1.11)"/><path class="cls-7" d="M366.55,189.5h46.19c9.13,0,26.75,13.17,16.63,57.79s-24.75,104.45-24.75,104.45H243.79l36.3-162.24Z" transform="translate(42.08 1.11)"/><path class="cls-8" d="M353.52,324.51c-2.77,1.08-8,0-8,0-.89,7.19-4,24.71-4,24.71H304.29l23-146.89,24.14-12.83h23.09c-7.51,9.5-20.07,20.12-31.34,27.13-1.07,5.4-4.75,21.69-4.75,21.69,10.15-3,43.59-15.27,42.15,9.57C379.15,270.93,370,292.87,353.52,324.51Z" transform="translate(42.08 1.11)"/><path class="cls-8" d="M412.74,189.5c9.13,0,26.75,13.17,16.63,57.79s-24.75,104.45-24.75,104.45H364.55s14.49-61.5,25.9-110.57S406.55,189.5,412.74,189.5Z" transform="translate(42.08 1.11)"/><path class="cls-9" d="M351.23,103.86c7.36-.08,29.13,1.71,32.61,13.66,2.55,10.91,1.44,32.75-3.2,47.3-3.18,8.83-37.9,44.37-51.68,46,2-16.91,3.38-76.4,3.38-76.4Z" transform="translate(42.08 1.11)"/><path class="cls-10" d="M329,210.78c.36-3.09.71-7.6,1-12.91l20.18-35.31c1.13-4.78,3.14-12.65,3.14-14.44,6.85,2.25,10.93,14.5,13,24.35,3.27.5,10.39-3,14.35-7.65C377.46,173.65,342.74,209.19,329,210.78Z" transform="translate(42.08 1.11)"/><path class="cls-11" d="M294.71,213.69l39.55-12.62-8.66,40.49c-16,14.31-23.08,16.52-26,14.39h0c-6.28-3.5-4.05-15-1.19-19Z" transform="translate(42.08 1.11)"/><path class="cls-12" d="M298.57,237.9l-3.86-24.21,39.55-12.62-2,9.15C325.29,222.61,311.89,237,298.57,237.9Z" transform="translate(42.08 1.11)"/><path class="cls-11" d="M252.91,142.15c.93,16,1,36-2,53.38,5.31,15.84,36,31,54.16,25.05,17-6.57,28.17-15.82,32.86-22.89,5.33,5.95,19.63,4.06,25.83-17.53,2.36-9.43-4.83-21.3-20.56-16.51,1.66-8.35-6.27-38.29-6.27-38.29s-45.69-7.27-76.15.56C255.26,128.18,252.6,135.74,252.91,142.15Z" transform="translate(42.08 1.11)"/><path class="cls-13" d="M285.92,189.35c-3.08-3-7.49-5.2-11.93-3.5-2.39.82.53,4.93.53,4.93,1.06,1.5,8,1.63,11.94.55C287.13,190.81,285.92,189.35,285.92,189.35Z" transform="translate(42.08 1.11)"/><path class="cls-12" d="M254,146.25l-1.08-3.81c0-.09,0-.19,0-.29-.31-6.41,2.35-14,7.91-16.23,30.46-7.83,76.15-.56,76.15-.56s7.93,29.94,6.27,38.29c1.28,6.08-4.09,21.8-6.81,24,1.13-3.85,1.25-16.35.57-22.44a215.7,215.7,0,0,0-4.86-24.75c-4.22,1.16-14.31,2.55-27.56.79C279.42,134.81,264.8,139.73,254,146.25Z" transform="translate(42.08 1.11)"/><path class="cls-9" d="M348.54,103.1c.8-6.17,5.77-14.48,5.77-14.48,4.25-3.34,20.32-1.18,30.7,8.49-7.94-2.2-28.6-1.52-34.35,9.38C347.79,106.88,348.54,103.1,348.54,103.1Z" transform="translate(42.08 1.11)"/><path class="cls-12" d="M322.07,160.55l-24.62,3.92C298.77,164.86,317.36,166.38,322.07,160.55Z" transform="translate(42.08 1.11)"/><path class="cls-12" d="M304.05,168a5.71,5.71,0,1,0,4-7A5.7,5.7,0,0,0,304.05,168Z" transform="translate(42.08 1.11)"/><path class="cls-9" d="M297.45,164.47c.93-2.28,7.18-5.08,13.91-5.51,3.53-.19,8.74,1.19,10.71,1.59Z" transform="translate(42.08 1.11)"/><path class="cls-9" d="M302.74,167.26a5.71,5.71,0,1,0,4-7A5.71,5.71,0,0,0,302.74,167.26Z" transform="translate(42.08 1.11)"/><path class="cls-12" d="M257.73,159.9c.32,1.55,1,2.91,4.48,4.26,2.68,1,10.59,3,10.59,3Z" transform="translate(42.08 1.11)"/><path class="cls-12" d="M262.73,166.58c.66,2.43,2.6,4,4.34,3.54s2.6-2.83,1.93-5.25-2.6-4-4.33-3.53S262.06,164.16,262.73,166.58Z" transform="translate(42.08 1.11)"/><path class="cls-9" d="M257.73,159.9c7.14-4.49,11.91,4.28,15.07,7.26Z" transform="translate(42.08 1.11)"/><path class="cls-9" d="M261.83,165.69c.66,2.43,2.6,4,4.33,3.54s2.61-2.83,1.94-5.25-2.6-4-4.34-3.53S261.16,163.27,261.83,165.69Z" transform="translate(42.08 1.11)"/><path class="cls-12" d="M360.51,181.83c.7-4.31.86-11.91-14.44-11.26a31.18,31.18,0,0,0-2.92,5.27c4-.58,13.13-3.09,15.25,1.45a28.08,28.08,0,0,1,1.2,6.66A6.22,6.22,0,0,0,360.51,181.83Z" transform="translate(42.08 1.11)"/><path class="cls-12" d="M344.86,175.41c1.31,1,7.49,7.53-2.46,10,3.7.42,12.42-2.57,7-10.83C347.51,173.87,344.86,175.41,344.86,175.41Z" transform="translate(42.08 1.11)"/><path class="cls-14" d="M278.69,173.63c-1.21,2.2-4.38,7.45-4.69,8.07-.19.85,5.92,1.72,6.57.32.76-1.74.84-9,.78-9.77C281.25,171.16,279.71,171.82,278.69,173.63Z" transform="translate(42.08 1.11)"/><path class="cls-15" d="M297.91,161.62a7.88,7.88,0,0,1,2-2.26,17.83,17.83,0,0,1,2.44-1.71,19.41,19.41,0,0,1,2.67-1.31,11.38,11.38,0,0,1,2.88-.79c-1.7,1-3.35,2-5,3l-2.5,1.48A26.05,26.05,0,0,0,297.91,161.62Z" transform="translate(42.08 1.11)"/><path class="cls-15" d="M273.27,166.09a11.94,11.94,0,0,0-1.14-1.75c-.43-.54-.86-1.08-1.32-1.6s-.92-1-1.38-1.55-1-1-1.49-1.49a7.55,7.55,0,0,1,1.8,1.15,12,12,0,0,1,1.53,1.5,10.76,10.76,0,0,1,1.24,1.74A5.42,5.42,0,0,1,273.27,166.09Z" transform="translate(42.08 1.11)"/><path class="cls-1" d="M274.35,163.2a19.77,19.77,0,0,1-.64,7.29l-.1.21-.81,2h0a9.8,9.8,0,0,1-6.3,5,12.68,12.68,0,0,1-4.94.32,12.4,12.4,0,0,1-8.31-5.65v-.13c0-1.33,1.62-15.18,1.62-15.18l0-.32C263.88,155,271.17,160.33,274.35,163.2Z" transform="translate(42.08 1.11)"/><path class="cls-1" d="M253.26,172.28v.13a17.54,17.54,0,0,1-1.54-3,29.56,29.56,0,0,1-1.75-11,22.22,22.22,0,0,1,3.55-1.32l-.68-2.47h0l.68,2.47c.47-.13.94-.22,1.4-.31l0,.32S253.3,171,253.26,172.28Z" transform="translate(42.08 1.11)"/><path class="cls-1" d="M306.18,156.24a36.54,36.54,0,0,1,22.07.85,26.46,26.46,0,0,1-.71,10.83c-1.82,6-6,9.8-12.69,11.64l-1.23.31c-4.49.64-10.69.57-15.13-3.28a14.83,14.83,0,0,1-4-6.14l.1-.1-.22-.24a26.58,26.58,0,0,1-1.36-7.5A41.39,41.39,0,0,1,306.18,156.24Z" transform="translate(42.08 1.11)"/><polygon class="cls-1" points="294.55 154.37 294.45 154.01 294.55 154.37 294.55 154.37"/><path class="cls-12" d="M253.26,172.41c0,1.14-.26,4.52-.37,6.15a17,17,0,0,0,8,3.78,17.2,17.2,0,0,0,6.8-.41,14.44,14.44,0,0,0,10.06-9.75,4.17,4.17,0,0,1,3.37-2.36c3.69-.67,8.1,1.09,8.79,1.86l.61.66c3.77,9.69,12.79,13.45,23.92,11.8.54-.12,1.07-.25,1.58-.39,11.84-3.24,15.72-11.67,16.63-19a23.48,23.48,0,0,0,4.21-.56c1.09-.3,4.45-6.19,3.17-8.87-2.32-1.22-11.67-3.87-18.47-4.3h0a40.52,40.52,0,0,0-16.5,1.05,45.38,45.38,0,0,0-16.45,8.46,39.19,39.19,0,0,0,.39,5.91,18,18,0,0,0-8.64-.88,10.87,10.87,0,0,0-1.59.42,30.91,30.91,0,0,0-.24-4.8c-3.71-3.73-12.25-10.26-23-8.87-.21,1.58-.51,3.69-.62,4.49,9-1.74,16.25,3.55,19.43,6.42a19.77,19.77,0,0,1-.64,7.29l-.1.21-.81,2h0a9.8,9.8,0,0,1-6.3,5,12.68,12.68,0,0,1-4.94.32A12.4,12.4,0,0,1,253.26,172.41Zm39.71-9.8a41.39,41.39,0,0,1,13.21-6.37,36.54,36.54,0,0,1,22.07.85,26.46,26.46,0,0,1-.71,10.83c-1.82,6-6,9.8-12.69,11.64l-1.23.31c-4.49.64-10.69.57-15.13-3.28a14.83,14.83,0,0,1-4-6.14l.1-.1-.22-.24A26.58,26.58,0,0,1,293,162.61Z" transform="translate(42.08 1.11)"/><path class="cls-12" d="M295.52,151.12a2.56,2.56,0,0,1-3-1.26,5.27,5.27,0,0,1,2.86-7.1c5.39-2.36,28.9-4.33,40.93,12.26C332,152.63,318,144.75,295.52,151.12Z" transform="translate(42.08 1.11)"/><path class="cls-9" d="M293.6,150.05a2.23,2.23,0,0,1-2.53-.72,5.26,5.26,0,0,1,2.23-7.71C298.58,139,322,136,334.75,152,330.3,149.8,315.91,142.52,293.6,150.05Z" transform="translate(42.08 1.11)"/><path class="cls-12" d="M274.46,144.38c-5.25-2.63-20-3.09-23,4.91.21,1.07,1.68,1.4,3.09.67,2.41-1.59,11.32-1.54,21.78,1.73C278.25,151.47,278.69,146.63,274.46,144.38Z" transform="translate(42.08 1.11)"/><path class="cls-9" d="M343.61,163.43c1.05-5.84-.34-14.14-1.95-19.55a56.76,56.76,0,0,0,9-13.16l11.2,12.1s-7.65,17.23-11.71,19.74c-1,5.7-10.32,21.67-12.21,22.62C338,185.18,342.67,168,343.61,163.43Z" transform="translate(42.08 1.11)"/><path class="cls-10" d="M340.15,163c-.07-7.31-5.58-32.19-5.58-32.19l16.66-26.91c3.51,7.2,4.53,16.27-.55,26.86a56.76,56.76,0,0,1-9,13.16c1.61,5.41,3,13.71,1.95,19.55-.94,4.53-5.65,21.75-5.65,21.75S339.43,170.52,340.15,163Z" transform="translate(42.08 1.11)"/><path class="cls-9" d="M350.11,100.29c2.71,6.79,7.38,20.22-14.87,33.54-12.63,2.67-26.18,1.11-44.29-3.83-7.64-2-22.46-3.32-31.25.59-2.34,4.72-6.32,37.75-6.38,39.58-10.88-13.16-24-36-27-49.18.8-7.31,7.68-26.17,7.68-26.17,3.6-5.71,49.13-28.69,70.88-32.48C315.68,60.05,333,64.35,350.11,100.29Z" transform="translate(42.08 1.11)"/><path class="cls-10" d="M332,115.74c.83.17,1.66.36,2.53.49A14.47,14.47,0,0,1,332,115.74Z" transform="translate(42.08 1.11)"/><path class="cls-10" d="M226.36,121c.38-3.41,2.08-9.35,3.78-14.71C244.65,94,271.68,92,282.39,99.15c23.19,17.74,36.41,19.29,50.1,19.75-23.74,4-43.29-4.6-58.71-10.71-18.88-6.87-41.85,9.71-45.69,18.62A53.16,53.16,0,0,1,226.36,121Z" transform="translate(42.08 1.11)"/><path class="cls-10" d="M244,146.58c3.6-17.36,14.34-19.14,27.2-18.41h0a34,34,0,0,0-11.46,2.4c-1.92,3.88-4.94,26.81-6,35.92h0S244.28,149.92,244,146.58Z" transform="translate(42.08 1.11)"/><path class="cls-9" d="M276,143.13c-5.11-3-19.79-4.53-23.19,3.24.16,1.09,1.6,1.52,3,.9,2.49-1.42,11.38-.73,21.65,3.29C279.43,150.47,280.13,145.68,276,143.13Z" transform="translate(42.08 1.11)"/><path class="cls-10" d="M357.94,151.48c-1.86,3.2-5.07,10.34-7.77,11.08,1.89-4.2,3.14-12.65,3.14-14.44A11.09,11.09,0,0,1,357.94,151.48Z" transform="translate(42.08 1.11)"/><path class="cls-16" d="M328.85,155.3s-23.35-8.61-40,6.61c1.18,6.92,5.84,20.4,21.19,18.16C321.24,177.85,329.38,171.49,328.85,155.3Z" transform="translate(42.08 1.11)"/><path class="cls-16" d="M274.21,161.76c-3.65-3.46-14.38-12.1-27.63-5.43-.42,5.47,1.52,18.8,12,21.56C264,179,274.57,176.84,274.21,161.76Z" transform="translate(42.08 1.11)"/><path class="cls-14" d="M292.44,163.07a7.6,7.6,0,1,0,5.33-9.34A7.6,7.6,0,0,0,292.44,163.07Z" transform="translate(42.08 1.11)"/><path class="cls-14" d="M246.61,161.85a6.34,6.34,0,1,0,4.45-7.78A6.34,6.34,0,0,0,246.61,161.85Z" transform="translate(42.08 1.11)"/><polygon class="cls-17" points="292.48 152.8 292.48 152.8 292.48 152.8 292.48 152.8"/><path class="cls-18" d="M242.46,164.79a8.07,8.07,0,0,0,1.92.34c1.43,7,5.34,14.19,14.52,16a17.14,17.14,0,0,0,6.79-.42A14.41,14.41,0,0,0,275.75,171a4.19,4.19,0,0,1,3.38-2.36c3.68-.67,8.09,1.1,8.79,1.86l.61.66c3.77,9.69,12.78,13.45,23.91,11.8.55-.12,1.07-.25,1.59-.39,11.84-3.24,15.72-11.66,16.62-19a23.35,23.35,0,0,0,4.21-.56c1.1-.3,4.45-6.19,3.18-8.87-2.33-1.22-11.67-3.87-18.48-4.3h0a40.56,40.56,0,0,0-16.51,1.05,45.47,45.47,0,0,0-16.45,8.46,37.87,37.87,0,0,0,.4,5.91,18.16,18.16,0,0,0-8.65-.88,11.22,11.22,0,0,0-1.59.42,29.77,29.77,0,0,0-.24-4.8c-4.06-4.09-13.93-11.59-26.13-8.26h0l.09.36h0l-.09-.36a26.27,26.27,0,0,0-4.4,1.67,29.17,29.17,0,0,0-6.24,2.81C238.91,158.82,241.63,164.52,242.46,164.79Zm50,4.45-.05-.13-.06-.21a26.23,26.23,0,0,1-1.37-7.5A41.47,41.47,0,0,1,304.22,155a36.46,36.46,0,0,1,22.07.86,26.45,26.45,0,0,1-.72,10.82c-1.81,6-6,9.8-12.68,11.64l-1.24.31c-4.48.64-10.69.58-15.12-3.28A14.78,14.78,0,0,1,292.48,169.24ZM248,157.2a22.58,22.58,0,0,1,3.55-1.32l-.67-2.47h0l.67,2.47c9.6-2.62,17.49,3.09,20.84,6.11a20,20,0,0,1-.65,7.29l-.1.21-.81,2h0a9.76,9.76,0,0,1-6.29,5,12.69,12.69,0,0,1-4.94.32c-4.72-1-7.94-3.81-9.85-8.68A29.77,29.77,0,0,1,248,157.2Z" transform="translate(42.08 1.11)"/><polygon class="cls-10" points="292.48 152.8 292.48 152.8 292.48 152.8 292.48 152.8"/><polygon class="cls-10" points="290.6 152.18 290.6 152.18 290.6 152.18 290.6 152.18"/><path class="cls-19" d="M300.39,177.7a14,14,0,0,1-5.74-2.95,14.65,14.65,0,0,1-4-6.13l-.05-.12-.07-.23a26.45,26.45,0,0,1-1.36-7.49,41.39,41.39,0,0,1,13.21-6.37,36.38,36.38,0,0,1,22.07.85v0a36.3,36.3,0,0,0-20.19-.27A41.47,41.47,0,0,0,291,161.4a26.23,26.23,0,0,0,1.37,7.5l.06.21.05.13a14.78,14.78,0,0,0,4,6.14A13.37,13.37,0,0,0,300.39,177.7Z" transform="translate(42.08 1.11)"/><path class="cls-19" d="M276.49,163.71a11.22,11.22,0,0,0-1.59.42,30.91,30.91,0,0,0-.24-4.8,33,33,0,0,0-11.47-7.5A32.28,32.28,0,0,1,276.54,160a28.65,28.65,0,0,1,.23,3.72Z" transform="translate(42.08 1.11)"/><path class="cls-19" d="M257,176c-4.33-1.1-7.33-3.87-9.14-8.48a29.56,29.56,0,0,1-1.75-11,21.29,21.29,0,0,1,3.55-1.32l-.68-2.48h0l.68,2.48a16.1,16.1,0,0,1,1.61-.36l.27,1A22.58,22.58,0,0,0,248,157.2a29.77,29.77,0,0,0,1.76,11C251.29,172.08,253.68,174.66,257,176Z" transform="translate(42.08 1.11)"/><path class="cls-19" d="M251.55,155.88l-.27-1A19.51,19.51,0,0,1,261.84,156,19,19,0,0,0,251.55,155.88Z" transform="translate(42.08 1.11)"/><path class="cls-19" d="M242.5,164.51c0,.1,0,.21.07.31l-.11,0a.94.94,0,0,1-.37-.33Z" transform="translate(42.08 1.11)"/><path class="cls-19" d="M310.56,182.31l1.59-.4c11.83-3.23,15.72-11.66,16.62-19a24.45,24.45,0,0,0,4.21-.56c1.1-.3,4.45-6.2,3.17-8.87a13.23,13.23,0,0,0-1.78-.74,24.7,24.7,0,0,1,3.67,1.36c1.27,2.68-2.08,8.57-3.18,8.87a23.35,23.35,0,0,1-4.21.56c-.9,7.37-4.78,15.79-16.62,19-.52.14-1,.27-1.59.39a26.43,26.43,0,0,1-13.38-1.09A28,28,0,0,0,310.56,182.31Z" transform="translate(42.08 1.11)"/><path class="cls-19" d="M257,180.51a17.19,17.19,0,0,0,6.8-.41,14.44,14.44,0,0,0,10.06-9.75,4.2,4.2,0,0,1,3.37-2.37,13.86,13.86,0,0,1,7.19,1,12.69,12.69,0,0,0-5.3-.34,4.19,4.19,0,0,0-3.38,2.36,14.41,14.41,0,0,1-10.06,9.75,17.14,17.14,0,0,1-6.79.42,19.57,19.57,0,0,1-3.32-1C256.05,180.29,256.52,180.41,257,180.51Z" transform="translate(42.08 1.11)"/><path class="cls-14" d="M311.32,172.83c.3,1.08,1.77,1.63,3.29,1.21s2.52-1.63,2.22-2.72-1.77-1.62-3.29-1.2S311,171.75,311.32,172.83Z" transform="translate(42.08 1.11)"/><path class="cls-14" d="M259.69,172c.23.86,1.43,1.27,2.67.93s2.06-1.3,1.83-2.15-1.43-1.27-2.67-.93S259.46,171.19,259.69,172Z" transform="translate(42.08 1.11)"/><path class="cls-20" d="M333.55,155.73a7.15,7.15,0,0,0-3.17-.67c-.58.29,0,3.11,0,3.11.4.37,2.43,0,2.55-.09A2.63,2.63,0,0,0,333.55,155.73Z" transform="translate(42.08 1.11)"/><path class="cls-20" d="M241.36,157.64a5.37,5.37,0,0,1,2.33-.56c.44.2.09,2.29.09,2.29-.29.29-1.8,0-1.89,0A2,2,0,0,1,241.36,157.64Z" transform="translate(42.08 1.11)"/><path class="cls-12" d="M296.27,206.48a5.49,5.49,0,0,1-1.75,1.19,8.75,8.75,0,0,1-2,.62,9,9,0,0,1-2.08.15,4.83,4.83,0,0,1-2.06-.46l2-.47c.65-.15,1.3-.26,1.94-.4C293.61,206.89,294.86,206.65,296.27,206.48Z" transform="translate(42.08 1.11)"/><path class="cls-21" d="M299.77,204.76a4.85,4.85,0,0,0-2.31-1.07,16.24,16.24,0,0,0-2.52-.33c-1.71-.11-3.44-.07-5.18,0-3.49.09-7,.32-10.59.35a21.94,21.94,0,0,1,5.16-1.68,31.24,31.24,0,0,1,5.38-.63,21.83,21.83,0,0,1,5.45.49,10.56,10.56,0,0,1,2.64,1A4,4,0,0,1,299.77,204.76Z" transform="translate(42.08 1.11)"/><path class="cls-22" d="M348.29,231.67c-15.67,1.84-21.54,4.53-21.54,4.53-5.13,9-16.57,17.31-27.69,14.64-3.11-1-3.86-7.54-.49-12.94l-.45-2.82c-2-.66-5.48-1.94-7.35-2.34-1.27,2.46-26.27,49.63-26.27,49.63-2.42,10.28-23.94,66.85-23.94,66.85h87.95l15.87-80.46Z" transform="translate(42.08 1.11)"/><path class="cls-23" d="M322.84,251.5l18,35.05-9.68,49.06c-8.29,6.61-23.92,8.46-23.92,8.46h-60.4s10.18-6.31,9.24-17.41c8.09-2.07,38.55-17.38,44.39-21.64,0,0-1.32-2.52-1.88-3.64C301.63,294.23,316.3,265,322.84,251.5Z" transform="translate(42.08 1.11)"/><path class="cls-24" d="M290.77,232.74c-7.38-3.06-29.95,10.3-39.63,21.36-11.06,8.76-46.83,41.15-53.45,45.51-8.6,5.14-37.5,32.9-63.76,34.28.46,6,4.65,5.07,4.65,5.07l45.91-1.48c26.13-9.88,75.86-49.43,80-55.11C271.41,270.69,290.77,232.74,290.77,232.74Z" transform="translate(42.08 1.11)"/><path class="cls-22" d="M290.77,232.74c-7.43-2.34-26.16,5-52.9,30.44-4.46,4.24-21.05,19.32-21.05,19.32,4.05,8.06,15,21.3,23.74,22.52,22.71-20.18,23.94-22.65,23.94-22.65S288.28,245.9,290.77,232.74Z" transform="translate(42.08 1.11)"/><path class="cls-23" d="M264.5,282.37c2.28-7,11.32-25.73,11.32-25.73-10.94,12.19-18.72,30.28-45.63,44.78.84,3.58,5.83,6.52,5.83,6.52C240.56,305,259.07,288.75,264.5,282.37Z" transform="translate(42.08 1.11)"/><path class="cls-25" d="M244.54,344.07c-2.1-17.43-54.62-33.39-57.57,0Z" transform="translate(42.08 1.11)"/><path class="cls-11" d="M337.14,234.24c-19.55,17.72-25,59.08-33.18,74.07-8.63,6.37-45.42,17.22-52.38,18.47a29.38,29.38,0,0,1-6,.33c-9-3.4-17.87-6.91-23.22-7.82-3.59-.61-17.2-2.68-19.19-2.43-2.4.33-10,9.21-10,9.21.66,1.74,3.73,2.4,7,0a39.22,39.22,0,0,0,3.56-2.91c2.91.5,6.14,1.08,6.14,1.08-2.15.92-9.45,5.13-10,5.47-1.58,1.25-6.31,5.4-6.31,5.4-1.49,1.49.58,2.75,2.9,2,2.49-.8,7.39-4.12,7.39-4.12-.9.6-4.57,4.32-5.06,5.48-.67,1.32-.17,4.31,4.89.74,3-2.24,6.72-4.81,6.72-4.81a27.89,27.89,0,0,1,5-2.24,22.85,22.85,0,0,1,2.32-.49,33.78,33.78,0,0,0-6.26,4.27,56.5,56.5,0,0,0-3.51,4.63c.24,1.16,2.68,1.92,5.75-1.06,2.41-2.32,7.44-3.83,9.31-4.08s6.23,4.89,8,5.76c2.39,1.06,4.7,2.05,12.83.9,3.91.25,5.52.21,8.91.52,17.61.65,69-4.26,75.35-12.44,6.36-6.82,35.44-56.35,39.08-72.72C370.31,233.33,348.5,230.15,337.14,234.24Z" transform="translate(42.08 1.11)"/><path class="cls-22" d="M337.14,234.24c9.48-4.32,36.1-7.47,30.3,26.49-2.47,10.81-24,57-24,57-7.72,1.35-27-.33-40.59-14.75C308,290.55,317.82,247.73,337.14,234.24Z" transform="translate(42.08 1.11)"/><path class="cls-26" d="M203.81,333a15.6,15.6,0,0,0-1.47,1.29Z" transform="translate(42.08 1.11)"/><path class="cls-26" d="M203.81,333c1.52-1,5.33-3.17,5.33-3.17a23.12,23.12,0,0,0,2.64-1.43,34.5,34.5,0,0,0-4.37,1,89.23,89.23,0,0,0-8.61,5.19c-.88.51-4,2.46-5.5,2.2a3.18,3.18,0,0,0,3.12.32C198.91,336.27,203.81,333,203.81,333Z" transform="translate(42.08 1.11)"/><path class="cls-26" d="M215.34,332.12a22.85,22.85,0,0,1,2.32-.49c1-.31,2-.57,2-.57a10.28,10.28,0,0,0-3.8-.31,12.54,12.54,0,0,0-6.06,2.11c-1.43,1.21-8.22,7.71-10.47,7.93.76.24,2.09-.07,4.28-1.62,3-2.24,6.72-4.81,6.72-4.81A27.89,27.89,0,0,1,215.34,332.12Z" transform="translate(42.08 1.11)"/><path class="cls-14" d="M239.52,130.77c5.88-6.6,21.79-17.16,55.16-4-14.91-2.48-46.7-7.43-54.86,14.39,4.46,8.23,7.61,11.52,7.61,11.52-1.45.64-4.73,3.22-4.21,4.94s2.22,16.74,13.31,20.51a170.88,170.88,0,0,1-2.28,17.48c5.54,6.87,19.16,23.53,46,26,.15,7.42-.5,19.89-.5,19.89l-1.2-3.63c-3.11-.21-17.82-4.05-35.08,15.62s-72,62-72,62-23.48,15.58-41.17,23l-11.8.38s-4.19.92-4.65-5.07c26.27-1.38,55.16-29.14,63.76-34.28,2.76-1.82,10.58-8.5,19.56-16.31-.15-.27-.29-.54-.42-.8,0,0,16.58-15.08,21-19.32,23-21.91,40.15-30.4,49.18-30.83a8,8,0,0,1,3.71.39c1.87.4,5.31,1.68,7.36,2.34L296,221.89h-.18l-.68,0c-.82,0-1.65-.07-2.49-.14-.57-.05-1.14-.11-1.72-.19-.87-.1-1.74-.24-2.62-.4a57,57,0,0,1-8.54-2.25l-.46-.15-.74-.28c-1.13-.42-2.25-.86-3.35-1.34a65.46,65.46,0,0,1-7.28-3.71l-.5-.29a48.25,48.25,0,0,1-12.26-10.25l0,0a26,26,0,0,1-2.88-4.27.16.16,0,0,1,0-.07q-.36-.68-.66-1.35l-.06-.12c-.18-.43-.34-.86-.49-1.29a1.54,1.54,0,0,1-.08-.19h0c.22-1.27.41-2.57.59-3.87.06-.37.11-.75.16-1.12.13-1,.25-2,.37-3,0-.12,0-.24,0-.36s0-.45.08-.68c.23-2.15.43-4.32.59-6.49v-.07c0-.38,0-.76.07-1.13-5-3.12-7.41-8.43-8.48-13.66a7.87,7.87,0,0,1-1.91-.34.73.73,0,0,1-.18-.11,2.09,2.09,0,0,1-.19-.21h0c-1.06-1.28-3.07-6-2.32-8.29a15.49,15.49,0,0,1,2.58-1.37,174.26,174.26,0,0,1-11.12-20.32l0,0c-.37-.81-.72-1.61-1.06-2.4l-.06-.14c-.31-.73-.61-1.45-.89-2.16a1.19,1.19,0,0,1-.08-.2c-.29-.71-.55-1.41-.8-2.1,0-.12-.09-.24-.13-.37-.23-.63-.44-1.25-.64-1.85l-.06-.19c-.21-.63-.39-1.25-.56-1.86l-.12-.41c0-.13-.08-.27-.11-.4h0c-.12-.47-.24-.92-.33-1.37,0-.22,0-.45.08-.69,0-.09,0-.18.05-.26s.05-.33.07-.5l.06-.32.09-.49c0-.12.05-.24.08-.36s.06-.32.1-.49a.52.52,0,0,0,0-.11l.07-.28c0-.17.07-.34.11-.51s.07-.28.1-.42.08-.34.13-.52.07-.29.11-.44.08-.35.13-.53l.12-.46.14-.53c0-.16.09-.32.13-.49l.15-.53c0-.16.09-.33.14-.5l.15-.53.15-.52.15-.51.16-.55.15-.5c.05-.15.09-.3.14-.45l0-.1.15-.51c.06-.19.11-.37.17-.55s.11-.34.16-.51c.12-.4.25-.8.38-1.2,0-.12.07-.23.11-.35h0c.12-.37.23-.75.35-1.12l.68-2.06c.33-1,.65-1.95.95-2.83.23-.66.44-1.28.64-1.84.76-2.2,1.28-3.61,1.28-3.61a15.11,15.11,0,0,1,3.82-3.33l.68-.47c1.18-.8,2.56-1.67,4.09-2.59l1.35-.8q1.92-1.12,4.1-2.33l1.46-.79,2-1.06q2-1,4.1-2.12l2.15-1.08,3.1-1.53L264,77.21l1.38-.65,2.15-1,2.05-.92c3.3-1.48,6.64-2.91,9.94-4.25l1.41-.56c8.93-3.56,17.48-6.37,23.94-7.5h0c.49-.1,1-.19,1.49-.26l.27,0c.53-.07,1.07-.12,1.62-.16h0A23.36,23.36,0,0,1,312,62h0c-22.82,7.17-49.47,21.48-65.16,31.31C242.52,99.39,237.32,122.19,239.52,130.77Z" transform="translate(42.08 1.11)"/><rect class="cls-27" x="43.91" y="177.28" width="204.19" height="132.03" rx="8.95" transform="translate(334.09 487.71) rotate(180)"/><rect class="cls-25" x="31.83" y="177.28" width="204.19" height="132.03" rx="8.95" transform="translate(309.93 487.71) rotate(180)"/><rect class="cls-28" x="67.27" y="212.09" width="113.42" height="70.4" rx="6.87" transform="translate(290.04 495.7) rotate(180)"/><rect class="cls-29" x="56.59" y="212.69" width="113.42" height="70.4" rx="6.87" transform="translate(268.68 496.89) rotate(180)"/><rect class="cls-30" x="95.18" y="232.29" width="36.24" height="101.6" transform="translate(268.68 567.29) rotate(180)"/><rect class="cls-31" x="95.18" y="232.29" width="28.09" height="101.6" transform="translate(260.53 567.29) rotate(180)"/><rect class="cls-27" x="74.98" y="333.89" width="112.88" height="9.8" transform="translate(304.92 678.69) rotate(180)"/><rect class="cls-32" x="56.86" y="333.89" width="112.88" height="9.8" transform="translate(268.68 678.69) rotate(180)"/><rect class="cls-8" x="14.78" y="343.69" width="412.83" height="16.1" transform="translate(484.46 704.59) rotate(180)"/><path class="cls-26" d="M200.16,326.07a39.22,39.22,0,0,0,3.56-2.91c2.91.5,6.14,1.08,6.14,1.08,1.06-.41,3.52-1.28,3.52-1.28-1.56-.57-9.57-2.26-9.57-2.26-2,1.52-7.25,6.76-9.2,6.72C196,327.89,198,327.63,200.16,326.07Z" transform="translate(42.08 1.11)"/><path class="cls-26" d="M332.34,210.22l.08-.36c4.23-1.61,9.56-5.12,15.14-9.55,4.3-.95,9-4.34,12.7-11.18,10.19-9.79,18.9-20.09,20.42-24.31,4.64-14.55,5.74-36.39,3.19-47.3-3.3-11.33-23-13.52-31.33-13.66,7.44-8.36,25.26-8.76,32.51-6.75-10.38-9.67-26.45-11.83-30.7-8.49a59.82,59.82,0,0,0-4.81,10.44C336,71.24,322.41,63,312.07,62h0a23.38,23.38,0,0,0-3.72-.08h0c-.56,0-1.1.09-1.62.16l-.27,0c-.51.07-1,.16-1.49.26h0c-6.46,1.13-15,3.94-23.94,7.5l-1.41.56c-3.31,1.34-6.65,2.77-9.94,4.25l-2.05.92-2.16,1-1.38.65-3.16,1.51-3.11,1.53-2.15,1.08-2.6,1.33c14.49-.26,30.82,4.88,53.74,21.19,8.11,7.1,36,20.24,44.38,13.67-1.62,6.25-10.95,19-29.07,17.59,1.82,5.27.61,74.94-29.4,86.63.83.07,1.66.11,2.48.14l.68,0h.19a29.41,29.41,0,0,0,9.09-1.31c1.69,6.19,4.69,17.2,2.48,30.92,11.1-4.21,24.88-9.45,32.69,0,5.92,7.08-25.8,60.4-25.8,60.4a24.24,24.24,0,0,0,7.59,3.36,53.15,53.15,0,0,0,14.33,2.81,33.26,33.26,0,0,0,7.06-.32s21.51-46.21,24-57c4.85-28.43-13-30.84-24.52-28.35-11.66,1.75-16.18,3.82-16.18,3.82l5.56-26Z" transform="translate(42.08 1.11)"/><path class="cls-26" d="M261.42,338.36c-2.19,0-12.91.38-17.18-.47-4.22.7-6.7,1.56-13.73-1.31-2.95-1.8-6.72-4.26-10.53-2.26-2.06.93-5.14,1.7-7.2,4.06-.94,1.24-2.92,3.08-3.94,3.06,1,.33,2.77,0,4.8-2,2.41-2.32,7.44-3.83,9.31-4.08s6.23,4.89,8,5.76c2.39,1.06,4.7,2.05,12.83.9,3.91.25,5.52.21,8.91.52,17.61.65,69-4.26,75.35-12.44,1.6-1.72,4.64-6.14,8.35-12.06a53,53,0,0,1-14.29-2.81C317.28,322.18,303.42,336.92,261.42,338.36Z" transform="translate(42.08 1.11)"/></g></g></g></svg>